<svg width="256" height="256" viewBox="0 0 256 256" fill="none" xmlns="http://www.w3.org/2000/svg">
<path d="M122 12.7021C125.713 10.5586 130.287 10.5586 134 12.7021L224.852 65.1543C228.564 67.2979 230.852 71.2598 230.852 75.5469V180.453C230.852 184.74 228.564 188.702 224.852 190.846L134 243.298C130.287 245.441 125.713 245.441 122 243.298L31.1484 190.846C27.4357 188.702 25.1485 184.74 25.1484 180.453V75.5469C25.1485 71.2598 27.4357 67.2979 31.1484 65.1543L122 12.7021Z" stroke="#298BE7" stroke-width="16"/>
<rect x="56.4682" y="128" width="43.3548" height="16.5161" rx="1" transform="rotate(-45 56.4682 128)" fill="#298BE7"/>
<rect x="75.446" y="146.978" width="43.3548" height="16.5161" rx="1" transform="rotate(-45 75.446 146.978)" fill="#298BE7"/>
<rect x="138.219" y="128" width="43.3548" height="16.5161" rx="1" transform="rotate(-45 138.219 128)" fill="#298BE7"/>
<rect x="157.197" y="146.978" width="43.3548" height="16.5161" rx="1" transform="rotate(-45 157.197 146.978)" fill="#298BE7"/>
<rect x="128" y="117.781" width="43.3548" height="16.5161" rx="1" transform="rotate(-135 128 117.781)" fill="#298BE7"/>
<rect x="146.978" y="98.8033" width="43.3548" height="16.5161" rx="1" transform="rotate(-135 146.978 98.8033)" fill="#298BE7"/>
<rect x="128" y="199.532" width="43.3548" height="16.5161" rx="1" transform="rotate(-135 128 199.532)" fill="#298BE7"/>
<rect x="146.978" y="180.554" width="43.3548" height="16.5161" rx="1" transform="rotate(-135 146.978 180.554)" fill="#298BE7"/>
</svg>
